<svg xmlns="http://www.w3.org/2000/svg" version="1.1" xmlns:xlink="http://www.w3.org/1999/xlink" xmlns:svgjs="http://svgjs.dev/svgjs" width="1000" height="1000" viewBox="0 0 1000 1000"><rect width="1000" height="1000" fill="#000000"></rect><g transform="matrix(0.7,0,0,0.7,149.57575757575756,282.1265587044535)"><svg viewBox="0 0 396 247" data-background-color="#ffffff" preserveAspectRatio="xMidYMid meet" height="623" width="1000" xmlns="http://www.w3.org/2000/svg" xmlns:xlink="http://www.w3.org/1999/xlink"><g id="tight-bounds" transform="matrix(1,0,0,1,0.2400000000000091,-0.09999999999999432)"><svg viewBox="0 0 395.52 247.2" height="247.2" width="395.52"><g><svg></svg></g><g><svg viewBox="0 0 395.52 247.2" height="247.2" width="395.52"><g transform="matrix(1,0,0,1,75.54432,67.34420360679161)"><svg viewBox="0 0 244.43135999999998 112.51159278641678" height="112.51159278641678" width="244.43135999999998"><g><svg viewBox="0 0 245.65351679999995 113.07415075034885" height="112.51159278641678" width="244.43135999999998"><g><rect width="245.65351679999995" height="2.653052030360121" x="0" y="67.93112292234387" fill="#ffffff" opacity="1" stroke-width="0" stroke="transparent" fill-opacity="1" class="rect-o-0" data-fill-palette-color="primary" rx="1%" id="o-0" data-palette-color="#ffd700"></rect></g><g><rect width="245.65351679999995" height="2.653052030360121" x="0" y="74.05675614427483" fill="#ffffff" opacity="1" stroke-width="0" stroke="transparent" fill-opacity="1" class="rect-o-1" data-fill-palette-color="primary" rx="1%" id="o-1" data-palette-color="#ffd700"></rect></g><g transform="matrix(1,0,0,1,0.6110783999999825,83.65497055777662)"><svg viewBox="0 0 244.43135999999998 29.41918019257221" height="29.41918019257221" width="244.43135999999998"><g id="textblocktransform"><svg viewBox="0 0 244.43135999999998 29.41918019257221" height="29.41918019257221" width="244.43135999999998" id="textblock"><g><svg viewBox="0 0 244.43135999999998 29.41918019257221" height="29.41918019257221" width="244.43135999999998"><g transform="matrix(1,0,0,1,0,0)"><svg width="244.43135999999998" viewBox="1.75 -36.599998474121094 363.4700012207031 43.75" height="29.41918019257221" data-palette-color="#ffd700"><path d="M1.75 0L12.85 0 12.85-3 9.1-3 9.1-26.05Q9.1-26.5 9.05-26.95 9-27.4 9-27.8L9-27.8Q9.25-27.35 9.45-27.1 9.65-26.85 10-26.4L10-26.4 24.25-7.75 38.05-25.7Q38.45-26.25 38.8-26.75 39.15-27.25 39.55-27.8L39.55-27.8Q39.5-27.3 39.48-26.93 39.45-26.55 39.4-26.05L39.4-26.05 39.4-3 35.7-3 35.7 0 46.85 0 46.85-3 42.55-3 42.55-32 46.75-32 46.75-35 41.35-35Q37.05-29.45 32.8-23.9 28.55-18.35 24.25-12.8L24.25-12.8Q20.25-17.95 15.9-23.65 11.55-29.35 7.2-35L7.2-35 1.75-35 1.75-32 5.95-32 5.95-3 1.75-3 1.75 0ZM50.35 0L61.45 0 61.45-3 57.4-3 57.4-32 61.45-32 61.45-35 50.35-35 50.35-32 54.25-32 54.25-3 50.35-3 50.35 0ZM91.9-2.1L91.9-2.1 90.15-4.6Q88.5-3.65 86.62-3.13 84.75-2.6 82.75-2.6L82.75-2.6Q79.7-2.6 77.05-3.78 74.4-4.95 72.45-7L72.45-7Q70.4-8.95 69.25-11.68 68.1-14.4 68.1-17.45L68.1-17.45Q68.1-20.5 69.25-23.23 70.4-25.95 72.45-28L72.45-28Q74.4-30.05 77.07-31.23 79.75-32.4 82.8-32.4L82.8-32.4Q84.4-32.4 85.95-32.02 87.5-31.65 88.95-30.95L88.95-30.95 88.95-27.3 91.95-27.3 91.95-32.9Q89.9-34.1 87.62-34.75 85.35-35.4 82.8-35.4L82.8-35.4Q79.1-35.4 75.85-33.98 72.6-32.55 70.2-30.15L70.2-30.15Q67.75-27.7 66.35-24.43 64.95-21.15 64.95-17.45L64.95-17.45Q64.95-13.75 66.35-10.5 67.75-7.25 70.2-4.85L70.2-4.85Q72.6-2.4 75.85-1 79.1 0.4 82.8 0.4L82.8 0.4Q85.35 0.4 87.62-0.28 89.9-0.95 91.9-2.1ZM95.44 0L106.54 0 106.54-3 102.49-3 102.49-16.15 122.64-16.15 122.64-3 118.59-3 118.59 0 129.74 0 129.74-3 125.79-3 125.79-32 129.74-32 129.74-35 118.59-35 118.59-32 122.64-32 122.64-19.15 102.49-19.15 102.49-32 106.54-32 106.54-35 95.44-35 95.44-32 99.34-32 99.34-3 95.44-3 95.44 0ZM133.24 0L143.64 0 143.64-3 140.39-3Q141.84-6.45 142.81-8.7 143.79-10.95 145.24-14.4L145.24-14.4 157.74-14.4Q158.94-11.55 160.12-8.7 161.29-5.85 162.54-3L162.54-3 159.34-3 159.34 0 169.74 0 169.74-3 165.74-3Q162.19-11.5 158.62-19.8 155.04-28.1 151.49-36.6L151.49-36.6Q147.94-28.1 144.37-19.8 140.79-11.5 137.24-3L137.24-3 133.24-3 133.24 0ZM150.94-28.05L150.94-28.05Q151.04-28.3 151.17-28.65 151.29-29 151.44-29.6L151.44-29.6 151.94-28.05 156.44-17.4 146.54-17.4Q147.59-19.95 148.72-22.68 149.84-25.4 150.94-28.05ZM173.24 0L198.29 0 198.29-7.7 195.29-7.7 195.29-3 179.59-3 179.59-16.15 195.64-16.15 195.64-19.15 179.59-19.15 179.59-32 194.59-32 194.59-27.3 197.59-27.3 197.59-35 173.24-35 173.24-32 176.44-32 176.44-3 173.24-3 173.24 0ZM201.79 0L226.79 0 226.79-7.7 223.74-7.7 223.74-3 208.04-3 208.04-32 212.19-32 212.19-35 201.79-35 201.79-32 204.89-32 204.89-3 201.79-3 201.79 0ZM253.28 4.05L253.28 4.05Q254.78 2.6 255.66 0.45 256.53-1.7 256.53-4.5L256.53-4.5 256.53-35 245.28-35 245.28-32 253.38-32 253.38-4.65Q253.38-2.6 252.76-1 252.13 0.6 251.08 1.7L251.08 1.7Q250.03 2.85 248.53 3.45 247.03 4.05 245.28 4.15L245.28 4.15 245.28 7.15Q247.63 7.1 249.71 6.3 251.78 5.5 253.28 4.05ZM284.78-2.6L284.78-2.6Q286.43-4.05 287.38-6.25 288.33-8.45 288.33-11.3L288.33-11.3 288.33-32 292.18-32 292.18-35 281.08-35 281.08-32 285.18-32 285.18-11.45Q285.18-9.3 284.5-7.65 283.83-6 282.63-4.9L282.63-4.9Q281.38-3.75 279.7-3.18 278.03-2.6 276.08-2.6L276.08-2.6Q274.13-2.6 272.45-3.18 270.78-3.75 269.58-4.9L269.58-4.9Q268.38-6 267.7-7.65 267.03-9.3 267.03-11.45L267.03-11.45 267.03-32 271.13-32 271.13-35 260.03-35 260.03-32 263.88-32 263.88-11.3Q263.88-8.45 264.8-6.25 265.73-4.05 267.38-2.6L267.38-2.6Q268.98-1.1 271.23-0.35 273.48 0.4 276.08 0.4L276.08 0.4Q278.68 0.4 280.93-0.35 283.18-1.1 284.78-2.6ZM330.43 1.6L330.43-32 334.73-32 334.73-35 323.57-35 323.57-32 327.28-32 327.28-7 327.43-5.4 326.48-6.7 301.28-35 295.68-35 295.68-32 299.88-32 299.88-3 295.68-3 295.68 0 306.78 0 306.78-3 303.03-3 303.03-27.6 302.88-29.1 303.82-27.9 330.43 1.6ZM365.17-2L365.17-2 365.17-14.9 355.87-14.9 355.87-11.9 362.02-11.9 362.02-3.8Q360.67-3.15 359.15-2.83 357.62-2.5 356.02-2.5L356.02-2.5Q352.97-2.5 350.32-3.68 347.67-4.85 345.72-6.9L345.72-6.9Q343.67-8.85 342.52-11.58 341.37-14.3 341.37-17.35L341.37-17.35Q341.37-20.4 342.52-23.13 343.67-25.85 345.72-27.9L345.72-27.9Q347.67-29.95 350.35-31.13 353.02-32.3 356.07-32.3L356.07-32.3Q358.12-32.3 359.97-31.75 361.82-31.2 363.47-30.25L363.47-30.25 365.22-32.8Q363.17-34 360.9-34.65 358.62-35.3 356.07-35.3L356.07-35.3Q352.37-35.3 349.12-33.88 345.87-32.45 343.47-30.05L343.47-30.05Q341.02-27.6 339.62-24.33 338.22-21.05 338.22-17.35L338.22-17.35Q338.22-13.65 339.62-10.4 341.02-7.15 343.47-4.75L343.47-4.75Q345.87-2.3 349.12-0.9 352.37 0.5 356.07 0.5L356.07 0.5Q358.62 0.5 360.9-0.18 363.17-0.85 365.17-2Z" opacity="1" transform="matrix(1,0,0,1,0,0)" fill="#ffffff" class="wordmark-text-0" data-fill-palette-color="primary" id="text-0"></path></svg></g></svg></g></svg></g></svg></g><g transform="matrix(1,0,0,1,64.72579753052526,0)"><svg viewBox="0 0 116.20192173894945 60.9859605392022" height="60.9859605392022" width="116.20192173894945"><g><svg xmlns="http://www.w3.org/2000/svg" xmlns:xlink="http://www.w3.org/1999/xlink" version="1.1" x="0" y="0" viewBox="5 26.381999969482422 90.0009994506836 47.2349967956543" enable-background="new 0 0 100 100" xml:space="preserve" height="60.9859605392022" width="116.20192173894945" class="icon-icon-0" data-fill-palette-color="accent" id="icon-0"><path fill="none" d="M50.482 28.475c-0.03 0.03-0.071 0.048-0.106 0.072C50.411 28.522 50.452 28.505 50.482 28.475z"></path><path fill="none" d="M50.628 28.259c-0.021 0.052-0.06 0.093-0.093 0.138C50.568 28.352 50.606 28.311 50.628 28.259z"></path><path fill="none" d="M50.553 27.618c0.025 0.037 0.058 0.069 0.075 0.111C50.61 27.688 50.578 27.655 50.553 27.618z"></path><path fill="none" d="M50.266 28.621c-0.082 0.034-0.171 0.053-0.265 0.053C50.095 28.674 50.184 28.655 50.266 28.621z"></path><path fill="none" d="M50.001 28.674c-0.375 0-0.68-0.304-0.68-0.68s0.305-0.68 0.68-0.68c-0.376 0-0.681 0.304-0.681 0.68S49.625 28.674 50.001 28.674z"></path><path fill="none" d="M50.001 27.314c0.094 0 0.183 0.019 0.265 0.053C50.184 27.333 50.095 27.314 50.001 27.314z"></path><path fill="none" d="M50.376 27.442c0.036 0.024 0.076 0.041 0.106 0.071C50.452 27.483 50.412 27.466 50.376 27.442z"></path><path fill="none" d="M54.305 70.684c0.375 0 0.678 0.305 0.68 0.68C54.984 70.988 54.68 70.684 54.305 70.684z"></path><path d="M86.63 69.109c0.108-0.227 0.177-0.478 0.177-0.746V28.107c0-0.953-0.772-1.725-1.727-1.725H14.92c-0.953 0-1.724 0.772-1.724 1.725v40.256c0 0.269 0.066 0.52 0.176 0.746H5v2.783c0 0.953 0.773 1.725 1.726 1.725h86.549c0.953 0 1.726-0.771 1.726-1.725v-2.783H86.63zM50.001 27.314c0.094 0 0.183 0.019 0.265 0.053 0.042 0.018 0.074 0.049 0.11 0.075 0.036 0.024 0.076 0.041 0.106 0.071 0.03 0.03 0.047 0.07 0.071 0.105 0.025 0.037 0.058 0.069 0.075 0.111 0.034 0.081 0.054 0.171 0.054 0.265s-0.02 0.183-0.054 0.265c-0.021 0.052-0.06 0.093-0.093 0.138-0.02 0.025-0.031 0.056-0.053 0.078-0.03 0.03-0.071 0.048-0.106 0.072-0.037 0.025-0.069 0.057-0.11 0.074-0.082 0.034-0.171 0.053-0.265 0.053-0.376 0-0.681-0.304-0.681-0.68S49.625 27.314 50.001 27.314zM16.143 29.708h67.714v36.571H16.143V29.708zM54.305 72.046h-8.608c-0.375 0-0.68-0.305-0.68-0.683 0-0.375 0.305-0.68 0.68-0.68h8.608c0.375 0 0.68 0.305 0.68 0.68C54.984 71.741 54.68 72.046 54.305 72.046z" fill="#ffffff" data-fill-palette-color="accent"></path><polygon points="25.039,48.313 25.039,49.536 25.039,49.537 44.878,49.537 44.878,49.536 44.878,48.313 44.878,48.312   25.039,48.312 " fill="#ffffff" data-fill-palette-color="accent"></polygon><rect x="36.633" y="58.613" width="3.488" height="1.225" fill="#ffffff" data-fill-palette-color="accent"></rect><rect x="46.552" y="48.313" width="3.488" height="1.224" fill="#ffffff" data-fill-palette-color="accent"></rect><rect x="39.377" y="46.296" width="3.488" height="1.224" fill="#ffffff" data-fill-palette-color="accent"></rect><rect x="20.692" y="31.829" width="3.489" height="1.224" fill="#ffffff" data-fill-palette-color="accent"></rect><rect x="20.692" y="42.131" width="3.489" height="1.224" fill="#ffffff" data-fill-palette-color="accent"></rect><rect x="20.692" y="46.296" width="3.489" height="1.224" fill="#ffffff" data-fill-palette-color="accent"></rect><rect x="20.692" y="48.313" width="3.489" height="1.224" fill="#ffffff" data-fill-palette-color="accent"></rect><rect x="20.692" y="44.191" width="5.832" height="1.224" fill="#ffffff" data-fill-palette-color="accent"></rect><rect x="25.039" y="46.296" width="12.665" height="1.224" fill="#ffffff" data-fill-palette-color="accent"></rect><rect x="20.692" y="50.373" width="3.489" height="1.223" fill="#ffffff" data-fill-palette-color="accent"></rect><rect x="20.692" y="54.494" width="3.489" height="1.223" fill="#ffffff" data-fill-palette-color="accent"></rect><rect x="53.637" y="50.373" width="3.488" height="1.223" fill="#ffffff" data-fill-palette-color="accent"></rect><rect x="25.039" y="50.373" width="27.761" height="1.223" fill="#ffffff" data-fill-palette-color="accent"></rect><rect x="20.692" y="52.434" width="27.792" height="1.223" fill="#ffffff" data-fill-palette-color="accent"></rect><rect x="25.039" y="54.494" width="23.444" height="1.223" fill="#ffffff" data-fill-palette-color="accent"></rect><rect x="20.692" y="56.555" width="17.012" height="1.223" fill="#ffffff" data-fill-palette-color="accent"></rect><rect x="20.692" y="58.613" width="14.267" height="1.225" fill="#ffffff" data-fill-palette-color="accent"></rect><rect x="20.692" y="60.674" width="7.134" height="1.225" fill="#ffffff" data-fill-palette-color="accent"></rect><rect x="20.692" y="62.736" width="5.832" height="1.223" fill="#ffffff" data-fill-palette-color="accent"></rect><rect x="20.692" y="33.89" width="8.694" height="1.224" fill="#ffffff" data-fill-palette-color="accent"></rect><rect x="20.692" y="35.95" width="11.594" height="1.224" fill="#ffffff" data-fill-palette-color="accent"></rect><rect x="20.692" y="38.01" width="8.694" height="1.224" fill="#ffffff" data-fill-palette-color="accent"></rect><rect x="20.692" y="40.071" width="8.694" height="1.224" fill="#ffffff" data-fill-palette-color="accent"></rect><rect x="18.798" y="31.829" width="1.058" height="1.224" fill="#ffffff" data-fill-palette-color="accent"></rect><rect x="18.798" y="33.89" width="1.058" height="1.224" fill="#ffffff" data-fill-palette-color="accent"></rect><rect x="18.798" y="35.95" width="1.058" height="1.224" fill="#ffffff" data-fill-palette-color="accent"></rect><rect x="18.798" y="38.01" width="1.058" height="1.224" fill="#ffffff" data-fill-palette-color="accent"></rect><rect x="18.798" y="40.071" width="1.058" height="1.224" fill="#ffffff" data-fill-palette-color="accent"></rect><rect x="18.798" y="42.131" width="1.058" height="1.224" fill="#ffffff" data-fill-palette-color="accent"></rect><rect x="18.798" y="44.191" width="1.058" height="1.224" fill="#ffffff" data-fill-palette-color="accent"></rect><rect x="18.798" y="46.252" width="1.058" height="1.224" fill="#ffffff" data-fill-palette-color="accent"></rect><rect x="18.798" y="48.313" width="1.058" height="1.224" fill="#ffffff" data-fill-palette-color="accent"></rect><rect x="18.798" y="50.373" width="1.058" height="1.223" fill="#ffffff" data-fill-palette-color="accent"></rect><rect x="18.798" y="52.434" width="1.058" height="1.223" fill="#ffffff" data-fill-palette-color="accent"></rect><rect x="18.798" y="54.494" width="1.058" height="1.223" fill="#ffffff" data-fill-palette-color="accent"></rect><rect x="18.798" y="56.555" width="1.058" height="1.223" fill="#ffffff" data-fill-palette-color="accent"></rect><rect x="18.798" y="58.613" width="1.058" height="1.225" fill="#ffffff" data-fill-palette-color="accent"></rect><rect x="18.798" y="60.674" width="1.058" height="1.225" fill="#ffffff" data-fill-palette-color="accent"></rect><rect x="18.798" y="62.736" width="1.058" height="1.223" fill="#ffffff" data-fill-palette-color="accent"></rect></svg></g></svg></g><g></g></svg></g></svg></g><g><path d="M93.134 60.434A122.216 122.216 0 0 1 302.386 60.434L299.747 60.434A119.576 119.576 0 0 0 95.773 60.434L93.134 60.434M93.134 186.766A122.216 122.216 0 0 0 302.386 186.766L299.747 186.766A119.576 119.576 0 0 1 95.773 186.766L93.134 186.766" fill="#ffffff" stroke="transparent" data-fill-palette-color="tertiary"></path></g></svg></g><defs></defs></svg><rect width="395.52" height="247.2" fill="none" stroke="none" visibility="hidden"></rect></g></svg></g></svg>